<?xml version="1.0" encoding="UTF-8"?>
<!DOCTYPE svg PUBLIC "-//W3C//DTD SVG 1.1//EN" "http://www.w3.org/Graphics/SVG/1.1/DTD/svg11.dtd">
<!-- Creator: CorelDRAW X7 -->
<svg xmlns="http://www.w3.org/2000/svg" xml:space="preserve" width="300px" height="225px" version="1.1" style="shape-rendering:geometricPrecision; text-rendering:geometricPrecision; image-rendering:optimizeQuality; fill-rule:evenodd; clip-rule:evenodd"
viewBox="0 0 60 45"
 xmlns:xlink="http://www.w3.org/1999/xlink">
 <defs>
  <style type="text/css">
   <![CDATA[
    .fil0 {fill:#177AEB}
   ]]>
  </style>
 </defs>
 <g id="Слой_x0020_1">
  <metadata id="CorelCorpID_0Corel-Layer"/>
  <path class="fil0" d="M34 12l-2 0 -1 0 0 7 0 16 0 0 0 5 0 3 0 2 2 0 1 0 0 -4 0 -1 0 -5 0 -1 0 -8 0 -5 0 -2 0 -2 0 -5zm-3 -6l0 1 0 2 3 0 0 0 0 -1 0 -2 -1 0 -2 0zm-3 0l-3 0 0 3 3 0 0 -3zm3 -6l0 3 3 0 0 -3 -3 0zm-3 3l0 -3 -3 0 0 3 3 0zm9 33l0 3c9,0 17,-8 17,-17 0,-9 -8,-16 -17,-16l0 3c8,0 14,6 14,13 0,8 -6,14 -14,14zm0 6l0 3c13,0 23,-10 23,-23 0,-12 -10,-22 -23,-22l0 3c11,0 20,9 20,19 0,11 -9,20 -20,20zm-27 -15c2,5 7,9 12,9l0 3c-8,0 -15,-7 -16,-15l3 0c0,1 0,2 1,3zm12 0l0 -3 -13 0c0,1 0,2 1,3l12 0zm0 -18c-5,0 -10,4 -12,9 -1,1 -1,2 -1,3l-3 0c1,-8 8,-15 16,-15l0 3zm0 12l0 -3 -12 0c-1,1 -1,2 -1,3l13 0zm0 21l0 3c-12,0 -22,-10 -22,-23 0,-12 10,-22 22,-22l0 3c-10,0 -19,9 -19,19 0,11 9,20 19,20zm3 -30l3 0 0 33 -3 0 0 -33z"/>
 </g>
</svg>
